<svg xmlns="http://www.w3.org/2000/svg" viewBox="0 0 128 128">
  <!-- Sparkle: upper-left small -->
  <path d="M20 34 L22 27 L24 34 L31 36 L24 38 L22 45 L20 38 L13 36 Z" fill="#1A1A1A"/>
  <!-- Sparkle: upper-left larger -->
  <path d="M36 16 L39 8 L42 16 L50 19 L42 22 L39 30 L36 22 L28 19 Z" fill="#1A1A1A"/>
  <!-- Sparkle: upper-right -->
  <path d="M98 42 L100 36 L102 42 L108 44 L102 46 L100 52 L98 46 L92 44 Z" fill="#1A1A1A"/>
  <!-- Coin outer (black border) -->
  <circle cx="66" cy="80" r="44" fill="#1A1A1A"/>
  <!-- Coin gold fill -->
  <circle cx="66" cy="80" r="38" fill="#F5C518"/>
  <!-- Highlight arc upper -->
  <path d="M32 64 Q38 50 52 46" stroke="rgba(255,255,255,0.58)" stroke-width="4" stroke-linecap="round" fill="none"/>
  <!-- Highlight arc lower -->
  <path d="M34 74 Q35 68 38 63" stroke="rgba(255,255,255,0.38)" stroke-width="3" stroke-linecap="round" fill="none"/>
  <!-- Dollar sign -->
  <text x="66" y="97" text-anchor="middle" font-family="Arial Black, Arial, sans-serif" font-size="44" font-weight="900" fill="#1A1A1A">$</text>
</svg>
